<svg width="257" height="55" viewBox="0 0 257 55" fill="none" xmlns="http://www.w3.org/2000/svg">
<g clip-path="url(#clip0_1365_18661)">
<path fill-rule="evenodd" clip-rule="evenodd" d="M53.2581 20.7316C52.8977 21.0153 52.9783 21.2943 52.9783 21.5443C52.9783 24.0306 52.9783 26.512 52.9783 28.9982C52.9783 32.124 52.9925 35.2499 52.9973 38.3757C52.9973 39.1403 52.8645 39.2846 52.0962 39.2846C49.1511 39.2846 46.2108 39.2846 43.2657 39.2846C42.5496 39.2846 42.4358 39.1691 42.4263 38.4574C42.4263 38.1977 42.4263 37.9381 42.4263 37.6784C42.4263 25.4973 42.4263 13.3162 42.4263 1.13513C42.4263 0.0434993 42.4547 0.0146456 43.517 0.0146456C45.9262 0.0146456 48.3402 0.0338814 50.7493 0.00021874C51.4749 -0.00939917 51.9112 0.298374 52.3001 0.880257C52.9404 1.84205 53.6422 2.75575 54.3109 3.69349C54.6571 4.1792 54.9844 4.67452 55.3258 5.16023C56.0277 6.15087 56.7343 7.1319 57.4362 8.12254C57.7587 8.57458 58.0575 9.04586 58.38 9.4979C59.1293 10.5463 59.8976 11.585 60.6469 12.6381C60.922 13.0229 61.1591 13.4412 61.4389 13.826C62.2024 14.8887 62.9802 15.9419 63.739 17.0095C64.0473 17.4471 64.3034 17.9232 64.6164 18.356C64.7491 18.5387 64.9531 18.683 65.157 18.784C65.3941 18.8994 65.6075 18.8032 65.7688 18.5772C66.5323 17.5144 67.3196 16.4613 68.0736 15.3889C68.7992 14.3501 69.4916 13.2825 70.203 12.2294C70.3595 11.9986 70.554 11.7966 70.7152 11.5706C71.4835 10.5078 72.2565 9.45462 73.0058 8.38222C73.7124 7.37715 74.3859 6.34804 75.083 5.33335C75.2822 5.04 75.5098 4.76108 75.7185 4.47255C76.2307 3.76563 76.7524 3.06833 77.2551 2.35661C77.5396 1.95265 77.791 1.51985 78.0755 1.1159C78.2795 0.82255 78.5118 0.548439 78.7347 0.26952C78.9482 0.000218732 79.2517 0.0146456 79.5504 0.0146456H86.0097C86.3844 0.0146456 86.759 0.0146456 87.1384 0.0146456C87.9304 0.0194546 88.049 0.144487 88.049 0.971627C88.049 1.23131 88.049 1.49099 88.049 1.75068C88.049 13.9125 88.049 26.0696 88.049 38.2314C88.049 39.1932 87.9636 39.2798 86.9914 39.2798C84.1459 39.2798 81.3004 39.2798 78.4549 39.2798C78.3364 39.2798 78.2178 39.2846 78.0992 39.2798C77.6487 39.2461 77.5207 39.1114 77.4922 38.6402C77.4827 38.4622 77.4922 38.2795 77.4922 38.1016C77.4922 32.6915 77.4922 27.2814 77.4922 21.8761C77.4922 21.5972 77.4875 21.3135 77.4495 21.0394C77.4353 20.9384 77.331 20.7845 77.2551 20.7797C77.146 20.7701 76.9848 20.8422 76.9184 20.9336C76.5247 21.4578 76.1548 22.0012 75.7754 22.5398C75.2111 23.3333 74.6467 24.1267 74.0871 24.925C73.3662 25.9493 72.6596 26.9784 71.934 28.0028C71.1989 29.0415 70.4449 30.0658 69.705 31.0997C69.2213 31.7778 68.7518 32.4703 68.2728 33.1531C68.0879 33.4128 67.8887 33.6581 67.7037 33.9178C67.0682 34.8074 66.4375 35.6971 65.8115 36.5867C65.4985 37.034 65.0195 37.0724 64.6875 36.63C64.237 36.0241 63.8196 35.3941 63.3833 34.7738C62.6957 33.7975 61.9985 32.8309 61.3108 31.8547C60.9694 31.369 60.6422 30.8689 60.296 30.3832C59.6083 29.4118 58.9111 28.4452 58.2187 27.469C57.8868 26.9977 57.569 26.5216 57.2371 26.0503C56.9999 25.7089 56.7533 25.3723 56.5115 25.0356C55.985 24.3143 55.4491 23.6026 54.9369 22.8716C54.6524 22.4676 54.4248 22.0204 54.126 21.6261C53.8794 21.3039 53.5664 21.0346 53.2723 20.7364L53.2581 20.7316Z" fill="#787878"/>
<path fill-rule="evenodd" clip-rule="evenodd" d="M166.85 39.2844C165.19 39.2844 163.53 39.2699 161.871 39.294C161.192 39.3036 160.737 39.0776 160.362 38.4668C159.708 37.3993 158.954 36.4038 158.257 35.3603C157.526 34.2686 156.834 33.1578 156.104 32.0709C155.629 31.3592 155.122 30.6715 154.634 29.9742C154.52 29.8107 154.43 29.6328 154.316 29.4693C154.121 29.1856 153.96 29.1279 153.661 29.2817C153.51 29.3635 153.348 29.4741 153.253 29.6136C152.751 30.3493 152.267 31.1043 151.769 31.8449C151.603 32.095 151.418 32.3306 151.252 32.5759C150.503 33.6771 149.749 34.7688 149.014 35.8796C148.487 36.6731 147.999 37.4906 147.482 38.2937C147.321 38.5438 147.136 38.7794 146.96 39.0199C146.77 39.2796 146.491 39.2796 146.211 39.2796C145.3 39.2796 144.395 39.2796 143.484 39.2796C141.013 39.2796 138.547 39.2796 136.076 39.2796C135.801 39.2796 135.521 39.2507 135.256 39.1882C135.028 39.1305 134.947 38.9477 135.071 38.7217C135.147 38.5823 135.227 38.4428 135.317 38.313C135.858 37.5291 136.413 36.7549 136.935 35.9566C137.67 34.8457 138.372 33.7156 139.102 32.6047C139.519 31.9748 139.979 31.3736 140.406 30.7485C140.942 29.9646 141.468 29.1663 142 28.3729C142.554 27.5505 143.109 26.7282 143.659 25.9059C144.376 24.8287 145.077 23.7418 145.794 22.6694C146.277 21.9385 146.766 21.2123 147.283 20.5054C147.672 19.9668 147.676 19.4667 147.283 18.9184C146.936 18.4376 146.633 17.9182 146.301 17.4229C145.846 16.7448 145.376 16.0812 144.926 15.4031C144.352 14.5423 143.802 13.6719 143.228 12.8159C142.754 12.1042 142.246 11.4165 141.777 10.7048C141.217 9.86319 140.686 9.00239 140.136 8.1512C139.908 7.80015 139.666 7.45871 139.434 7.11247C138.851 6.23724 138.277 5.35239 137.689 4.48197C136.987 3.44324 136.275 2.41412 135.573 1.38019C135.407 1.13494 135.246 0.880063 135.104 0.615571C134.947 0.327034 135.014 0.168338 135.327 0.081777C135.517 0.0288785 135.716 0.0144516 135.91 0.0144516C139.249 0.0144516 142.588 0.0144516 145.926 0.0144516C146.434 0.0144516 146.813 0.125058 147.107 0.615571C147.667 1.55332 148.288 2.45259 148.895 3.35667C149.35 4.03474 149.825 4.69837 150.285 5.37163C150.811 6.14587 151.323 6.92973 151.845 7.70878C152.319 8.41569 152.779 9.13704 153.272 9.83434C153.628 10.3393 154.064 10.3152 154.401 9.8151C155.335 8.43012 156.279 7.05476 157.213 5.67459C157.692 4.96287 158.148 4.24152 158.627 3.5298C159.167 2.72189 159.722 1.92361 160.268 1.12051C160.367 0.971433 160.457 0.817547 160.533 0.654042C160.713 0.240472 161.041 0.0577322 161.467 0.0336875C161.643 0.0240695 161.823 0.0192606 161.999 0.0192606C165.318 0.0192606 168.638 0.0192606 171.953 0.0192606C172.223 0.0192606 172.546 -0.0624916 172.707 0.230855C172.887 0.557863 172.551 0.721368 172.404 0.937771C171.73 1.94765 171.062 2.95753 170.388 3.96741C169.833 4.78974 169.259 5.60246 168.714 6.4296C168.202 7.20865 167.718 8.00693 167.206 8.78598C166.76 9.46885 166.276 10.1277 165.831 10.8057C165.252 11.6858 164.692 12.5754 164.119 13.4555C163.9 13.7873 163.673 14.1143 163.45 14.4413C162.909 15.2252 162.359 16.0042 161.833 16.7977C161.292 17.6104 160.789 18.4424 160.244 19.2503C160.03 19.5628 160.026 19.8321 160.225 20.1303C160.87 21.0873 161.51 22.0443 162.15 23.0061C162.435 23.4341 162.701 23.8813 162.985 24.3093C163.459 25.021 163.948 25.7231 164.422 26.4348C164.972 27.262 165.508 28.0987 166.058 28.9259C166.532 29.6376 167.021 30.3349 167.5 31.0418C167.813 31.5035 168.112 31.9699 168.425 32.4268C169.402 33.8743 170.383 35.3218 171.365 36.7693C171.787 37.3944 172.219 38.0148 172.646 38.64C172.854 38.9429 172.769 39.1882 172.418 39.2651C172.266 39.2988 172.105 39.2892 171.948 39.2892C170.251 39.2892 168.548 39.2892 166.85 39.2892V39.2844Z" fill="#787878"/>
<path fill-rule="evenodd" clip-rule="evenodd" d="M209.305 39.2847C207.645 39.2847 205.985 39.2703 204.325 39.2895C203.652 39.2992 203.182 39.0924 202.808 38.4816C202.144 37.3996 201.375 36.3801 200.669 35.327C199.953 34.2546 199.265 33.1581 198.554 32.0809C197.961 31.1865 197.339 30.3112 196.732 29.4264C196.59 29.2148 196.396 29.1378 196.168 29.2533C195.997 29.3446 195.808 29.4504 195.703 29.6043C195.196 30.3401 194.712 31.0903 194.219 31.8357C194.096 32.0184 193.944 32.1771 193.825 32.3598C193.147 33.389 192.483 34.4277 191.8 35.452C191.283 36.2311 190.743 36.9909 190.221 37.7603C189.974 38.121 189.742 38.4913 189.519 38.8664C189.334 39.1789 189.073 39.2895 188.727 39.2847C188.016 39.2751 187.304 39.2847 186.593 39.2847C183.904 39.2847 181.22 39.2847 178.531 39.2847C178.256 39.2847 177.976 39.2559 177.71 39.1934C177.483 39.1405 177.393 38.9577 177.516 38.7269C177.592 38.5874 177.672 38.448 177.762 38.3181C178.303 37.5343 178.858 36.76 179.384 35.9618C180.12 34.8509 180.821 33.7208 181.552 32.6099C181.979 31.9607 182.448 31.3452 182.889 30.7056C183.406 29.9506 183.909 29.1907 184.421 28.4309C184.985 27.5894 185.554 26.7526 186.109 25.9062C186.821 24.829 187.523 23.7374 188.239 22.665C188.727 21.934 189.22 21.2127 189.733 20.501C190.107 19.9816 190.121 19.4767 189.761 18.9573C189.386 18.4187 189.05 17.856 188.684 17.3126C188.253 16.6682 187.798 16.0431 187.361 15.3987C186.797 14.5571 186.252 13.7011 185.692 12.8595C185.232 12.167 184.753 11.4842 184.283 10.7917C183.951 10.2964 183.624 9.80104 183.292 9.30572C182.524 8.1708 181.751 7.0407 180.992 5.89617C180.466 5.10269 179.987 4.27555 179.465 3.48207C179.005 2.78478 178.507 2.11152 178.033 1.42384C177.853 1.15935 177.682 0.890049 177.53 0.611129C177.388 0.351446 177.449 0.187941 177.725 0.10138C177.91 0.0436729 178.113 0.0196281 178.308 0.0196281C181.685 0.0196281 185.066 0.0196281 188.443 0.0196281C188.917 0.0196281 189.254 0.14947 189.519 0.587085C190.093 1.53926 190.724 2.45777 191.345 3.38109C191.8 4.05915 192.274 4.72278 192.735 5.39604C193.251 6.15585 193.754 6.91567 194.266 7.68029C194.741 8.39202 195.205 9.10374 195.684 9.81066C196.05 10.3493 196.481 10.3348 196.842 9.80104C197.766 8.4353 198.701 7.07917 199.625 5.70862C200.095 5.01613 200.541 4.30921 201.005 3.61673C201.57 2.77516 202.148 1.94321 202.717 1.10645C202.784 1.00546 202.86 0.909285 202.898 0.798679C203.111 0.187941 203.571 0.0148191 204.159 0.0196281C205.307 0.029246 206.45 0.0196281 207.597 0.0196281C209.85 0.0196281 212.103 0.0196281 214.355 0.0196281C214.412 0.0196281 214.474 0.0196281 214.531 0.0196281C214.768 0.0244371 215.038 -0.0044167 215.157 0.255267C215.285 0.529377 215.034 0.678455 214.901 0.875622C214.384 1.63063 213.886 2.39525 213.374 3.15026C212.629 4.25151 211.866 5.34795 211.131 6.45401C210.614 7.23306 210.139 8.03615 209.627 8.8152C209.181 9.49808 208.698 10.1521 208.247 10.835C207.678 11.6958 207.133 12.5758 206.564 13.4318C206.089 14.1435 205.572 14.8264 205.098 15.5381C204.548 16.3653 204.026 17.2068 203.486 18.0436C203.215 18.462 202.945 18.8803 202.656 19.2843C202.452 19.568 202.452 19.8325 202.642 20.1162C203.287 21.0732 203.927 22.035 204.572 22.992C204.814 23.3527 205.06 23.7182 205.302 24.0836C205.814 24.8627 206.326 25.6417 206.839 26.4256C207.156 26.9065 207.469 27.3874 207.792 27.8635C208.551 28.9791 209.314 30.0948 210.073 31.2105C210.538 31.903 210.993 32.6051 211.458 33.2976C212.207 34.4229 212.956 35.5482 213.715 36.6687C214.171 37.3467 214.645 38.0104 215.1 38.6836C215.285 38.9529 215.19 39.1982 214.872 39.2703C214.702 39.3088 214.521 39.2992 214.341 39.2992C212.662 39.2992 210.984 39.2992 209.3 39.2992L209.305 39.2847Z" fill="#787878"/>
<path fill-rule="evenodd" clip-rule="evenodd" d="M251.129 39.284C249.488 39.284 247.847 39.2647 246.211 39.2936C245.495 39.3032 244.992 39.106 244.599 38.4424C243.968 37.3844 243.214 36.4082 242.531 35.3839C241.801 34.2923 241.099 33.1862 240.373 32.0946C239.78 31.2001 239.164 30.3249 238.561 29.4352C238.4 29.1948 238.187 29.1371 237.945 29.2669C237.793 29.3487 237.627 29.4545 237.532 29.5939C237.025 30.3297 236.541 31.0847 236.043 31.8253C235.858 32.1042 235.654 32.3783 235.465 32.6572C234.739 33.7248 234.004 34.7828 233.288 35.86C232.761 36.6535 232.273 37.4758 231.756 38.2741C231.585 38.5434 231.415 38.8223 231.187 39.0387C231.045 39.1733 230.812 39.2551 230.613 39.2743C230.238 39.308 229.864 39.284 229.489 39.284C226.468 39.284 223.442 39.284 220.421 39.284C220.146 39.284 219.867 39.2743 219.601 39.2166C219.288 39.1445 219.222 38.9714 219.359 38.6828C219.421 38.5578 219.497 38.4376 219.577 38.327C220.118 37.5431 220.663 36.7593 221.199 35.9706C221.835 35.0328 222.461 34.0903 223.096 33.1525C223.684 32.2773 224.277 31.4117 224.86 30.5317C225.344 29.8055 225.809 29.0649 226.293 28.334C226.819 27.5405 227.36 26.7566 227.891 25.9632C228.616 24.8715 229.333 23.7703 230.063 22.6786C230.551 21.9525 231.04 21.2215 231.552 20.5146C231.946 19.976 231.95 19.4663 231.562 18.9228C231.206 18.4227 230.893 17.8889 230.551 17.3792C230.106 16.7203 229.641 16.0759 229.2 15.4171C228.635 14.5756 228.09 13.7196 227.526 12.878C227.042 12.1518 226.535 11.4401 226.051 10.714C225.491 9.86759 224.955 9.01159 224.405 8.16041C224.177 7.80935 223.936 7.46792 223.703 7.12167C223.12 6.24644 222.546 5.36641 221.958 4.49118C221.256 3.45244 220.545 2.42333 219.843 1.3894C219.663 1.12491 219.497 0.855608 219.335 0.576688C219.203 0.350668 219.288 0.177545 219.516 0.11022C219.72 0.0525126 219.942 0.0188499 220.156 0.0188499C223.514 0.0188499 226.876 0.0188499 230.234 0.0188499C230.722 0.0188499 231.078 0.134265 231.358 0.605542C231.936 1.57695 232.581 2.50989 233.207 3.45244C233.629 4.08242 234.08 4.68834 234.502 5.31351C235.038 6.10218 235.564 6.90527 236.095 7.69875C236.57 8.41047 237.034 9.1222 237.523 9.82431C237.897 10.3629 238.32 10.3292 238.68 9.79064C239.562 8.46818 240.458 7.16015 241.345 5.84249C241.848 5.10191 242.341 4.35172 242.839 3.60633C243.404 2.76476 243.977 1.93281 244.542 1.09125C244.608 0.990258 244.684 0.894079 244.722 0.783473C244.935 0.163118 245.41 0.014041 245.988 0.0188499C247.548 0.0236589 249.109 0.0188499 250.669 0.0188499C252.504 0.0188499 254.344 0.0188499 256.18 0.0188499C256.336 0.0188499 256.498 0.00923201 256.649 0.0428947C256.995 0.115029 257.095 0.369903 256.896 0.668059C256.479 1.29322 256.047 1.91358 255.625 2.53874C254.899 3.61114 254.183 4.68834 253.462 5.76074C252.884 6.61673 252.291 7.46311 251.727 8.32391C250.996 9.43478 250.285 10.5601 249.559 11.6758C249.384 11.9402 249.194 12.1951 249.014 12.4596C248.284 13.5224 247.534 14.5804 246.823 15.6528C246.282 16.4607 245.789 17.3022 245.263 18.1246C245.016 18.5093 244.765 18.894 244.494 19.2643C244.29 19.5432 244.262 19.8077 244.452 20.0914C245.087 21.0532 245.727 22.0198 246.368 22.9768C246.6 23.323 246.847 23.6597 247.079 24.0059C247.667 24.8763 248.26 25.7467 248.838 26.6316C249.351 27.4106 249.834 28.2137 250.347 28.9928C250.783 29.6564 251.248 30.3008 251.693 30.9597C252.22 31.7291 252.741 32.5033 253.263 33.2776C254.017 34.3981 254.767 35.5233 255.525 36.6438C255.981 37.3171 256.455 37.9855 256.91 38.6588C257.109 38.9521 256.995 39.207 256.645 39.2743C256.493 39.3032 256.332 39.2936 256.17 39.2936C254.491 39.2936 252.813 39.2936 251.134 39.2936L251.129 39.284Z" fill="#787878"/>
<path fill-rule="evenodd" clip-rule="evenodd" d="M111.643 16.6106C111.183 17.1492 110.96 17.606 110.77 18.0869C110.59 18.5486 110.415 19.0151 110.253 19.4863C109.992 20.2606 109.746 21.0444 109.485 21.8187C109.371 22.1553 109.238 22.4919 109.115 22.8237C109.025 23.069 108.94 23.3094 108.854 23.5547C108.745 23.8529 108.636 24.1558 108.527 24.454C108.499 24.5309 108.451 24.5982 108.427 24.6704C108.148 25.5216 107.873 26.3727 107.593 27.2239C107.517 27.45 107.432 27.676 107.341 27.8972C107.28 28.0463 107.185 28.1809 107.137 28.33C106.872 29.1427 106.621 29.965 106.36 30.7778C106.289 31.0038 106.189 31.225 106.104 31.4462C105.995 31.7251 105.89 32.004 105.786 32.283C105.672 32.5811 105.568 32.8793 105.454 33.1774C105.425 33.2495 105.378 33.3217 105.354 33.3938C105.07 34.2642 104.79 35.1347 104.505 36.0099C104.444 36.1974 104.363 36.3802 104.297 36.5677C104.159 36.9621 104.026 37.3564 103.884 37.7507C103.747 38.1258 103.609 38.4961 103.448 38.8616C103.325 39.1453 103.083 39.2704 102.779 39.2752C102.661 39.2752 102.542 39.2752 102.423 39.2752C99.4973 39.2752 96.576 39.2752 93.6498 39.2752C93.3938 39.2752 93.1329 39.2607 92.8863 39.203C92.578 39.1261 92.5069 38.9674 92.6065 38.6644C92.9243 37.6786 93.2325 36.6831 93.574 35.7069C93.8443 34.9375 94.1715 34.1873 94.4608 33.4227C94.5367 33.2207 94.5794 32.9995 94.6505 32.7927C94.7833 32.3984 94.9208 32.004 95.0584 31.6097C95.139 31.3837 95.2196 31.1577 95.3002 30.9364C95.4093 30.6383 95.5184 30.3401 95.6322 30.042C95.7318 29.7631 95.8314 29.4793 95.9357 29.2004C96.0306 28.9407 96.1302 28.6762 96.2203 28.4166C96.3341 28.0799 96.4479 27.7385 96.5522 27.3971C96.5854 27.2816 96.5807 27.1566 96.6234 27.046C96.9174 26.2814 97.2162 25.5264 97.5102 24.7666C97.5956 24.5453 97.6715 24.3193 97.7568 24.0933C97.8754 23.7759 97.9892 23.4585 98.1078 23.1411C98.1505 23.0305 98.2216 22.9247 98.2548 22.8141C98.5156 21.9966 98.767 21.1791 99.0326 20.3664C99.1037 20.1403 99.1986 19.9191 99.2934 19.6979C99.3456 19.5681 99.4309 19.4527 99.4736 19.3228C99.7439 18.4861 99.9953 17.6493 100.266 16.8174C100.346 16.5721 100.46 16.3365 100.555 16.096C100.65 15.8556 100.735 15.6103 100.825 15.3699C100.944 15.0525 101.058 14.7351 101.181 14.4177C101.224 14.3071 101.29 14.2013 101.328 14.0907C101.589 13.2732 101.845 12.4556 102.106 11.6381C102.177 11.4121 102.272 11.1909 102.367 10.9697C102.428 10.8206 102.518 10.6859 102.57 10.5369C102.831 9.71934 103.068 8.89701 103.348 8.08911C103.628 7.2812 103.955 6.48773 104.259 5.68944C104.358 5.42976 104.444 5.16045 104.539 4.90077C104.638 4.62185 104.743 4.33812 104.852 4.06401C104.894 3.95341 104.989 3.85242 105.003 3.74181C105.108 2.8762 105.558 2.1212 105.791 1.29887C105.843 1.10651 105.904 0.914149 105.98 0.731409C106.189 0.236086 106.549 0.0196834 107.1 0.0244924C109.253 0.0437282 111.406 0.0341103 113.559 0.0341103C114.408 0.0341103 115.257 0.0293013 116.11 0.0341103C116.684 0.0389193 116.75 0.120671 116.954 0.673701C117.248 1.4768 117.585 2.26546 117.874 3.06856C118.154 3.85723 118.396 4.65551 118.662 5.4538C118.766 5.776 118.889 6.09339 119.003 6.41078C119.093 6.65123 119.183 6.89649 119.278 7.13693C119.397 7.45433 119.511 7.77172 119.634 8.08911C119.677 8.19971 119.743 8.30551 119.781 8.41612C120.042 9.23364 120.293 10.0512 120.559 10.8639C120.639 11.1091 120.753 11.3448 120.843 11.5852C120.943 11.8449 121.038 12.1094 121.133 12.3691C121.242 12.6672 121.355 12.9654 121.46 13.2684C121.55 13.5328 121.626 13.8021 121.716 14.0666C121.844 14.4417 121.977 14.8168 122.11 15.1919C122.19 15.418 122.275 15.6392 122.356 15.8652C122.475 16.1826 122.593 16.5 122.707 16.8174C122.802 17.077 122.892 17.3415 122.987 17.606C123.072 17.8513 123.158 18.0965 123.243 18.3418C123.371 18.7169 123.494 19.092 123.618 19.4719C123.66 19.6066 123.67 19.7508 123.717 19.8807C123.926 20.4625 124.154 21.0348 124.362 21.6167C124.78 22.7805 125.178 23.949 125.6 25.1128C125.88 25.8774 126.193 26.6324 126.492 27.3922C126.544 27.5221 126.582 27.6567 126.629 27.7866C127.004 28.859 127.388 29.9266 127.753 31.0038C128.052 31.8886 128.317 32.7879 128.626 33.6727C128.887 34.4277 129.181 35.1683 129.46 35.9137C129.489 35.9907 129.541 36.0532 129.565 36.1301C129.826 36.9044 130.11 37.6738 130.333 38.4576C130.518 39.1213 130.361 39.304 129.688 39.3088C128.246 39.3185 126.805 39.3088 125.363 39.3088C123.822 39.3088 122.28 39.3088 120.739 39.3088C120.521 39.3088 120.303 39.2992 120.094 39.2559C119.705 39.1742 119.511 38.8808 119.392 38.5154C119.122 37.7026 118.851 36.8899 118.572 36.082C118.529 35.9522 118.448 35.832 118.396 35.7021C118.178 35.1106 117.765 34.9279 117.144 34.9375C114.536 34.9664 111.927 34.9519 109.319 34.9519C109.181 34.9519 109.044 34.9567 108.906 34.9519C108.38 34.9279 108.238 34.8028 108.233 34.2642C108.219 33.1822 108.228 32.1002 108.228 31.0182C108.228 30.0949 108.224 29.1764 108.233 28.253C108.242 27.6038 108.366 27.4788 109.006 27.4788C110.747 27.4788 112.482 27.4788 114.223 27.4788C114.46 27.4788 114.702 27.4692 114.929 27.4163C115.271 27.3345 115.351 27.1662 115.247 26.844C114.929 25.8582 114.621 24.8675 114.284 23.8865C113.981 23.0017 113.63 22.1313 113.312 21.2512C113.023 20.4433 112.762 19.6258 112.482 18.8179C112.264 18.1975 112.032 17.582 111.799 16.9664C111.771 16.8895 111.728 16.8222 111.643 16.6442V16.6106Z" fill="#787878"/>
<path fill-rule="evenodd" clip-rule="evenodd" d="M19.3112 38.6642H1.0052C0.948289 38.6642 0.886637 38.6642 0.829727 38.6642C0.118354 38.6546 0.0140198 38.5488 0.00927734 37.8178C0.00927734 36.1155 0.00927734 34.4131 0.00927734 32.7107C0.00927734 31.9028 0.104127 31.8066 0.891379 31.8066C4.16844 31.8066 7.45024 31.8066 10.7273 31.8066H37.6836C38.6985 31.8066 38.7411 31.8499 38.7364 32.8983C38.7364 34.4997 38.7364 36.101 38.7364 37.7024C38.7364 37.8611 38.7364 38.0246 38.7222 38.1833C38.6937 38.4574 38.5467 38.6257 38.2669 38.6498C38.0914 38.6642 37.9112 38.6642 37.7357 38.6642H19.3112Z" fill="#2A2B79"/>
<path fill-rule="evenodd" clip-rule="evenodd" d="M19.34 28.6901H1.02926C0.0475653 28.6901 0.00488281 28.6468 0.00488281 27.6273C0.00488281 26.6655 0.00488281 25.7037 0.00488281 24.7419C0.00488281 23.7513 0.0475653 23.708 1.05297 23.708C3.97909 23.708 6.90046 23.708 9.82657 23.708C19.1124 23.708 28.3981 23.708 37.6839 23.708C38.7036 23.708 38.732 23.7417 38.732 24.7996C38.732 25.7422 38.732 26.6848 38.732 27.6273C38.732 28.6516 38.6941 28.6901 37.7124 28.6901H19.34Z" fill="#016699"/>
<path fill-rule="evenodd" clip-rule="evenodd" d="M19.373 19.967C13.2694 19.967 7.16586 19.967 1.06228 19.967C0.0426437 19.967 0.00470382 19.9285 0.00470382 18.8754C0.00470382 18.2358 -0.00478115 17.5914 0.00470382 16.9518C0.0141888 16.3699 0.142236 16.2449 0.697107 16.216C0.834639 16.2112 0.972171 16.216 1.1097 16.216H37.6126C38.7129 16.216 38.7271 16.2352 38.7271 17.3702C38.7271 18.0097 38.7366 18.6541 38.7271 19.2937C38.7176 19.8035 38.5801 19.9333 38.0963 19.967C37.9209 19.9766 37.7407 19.967 37.5652 19.967C31.4995 19.967 25.4386 19.967 19.373 19.967Z" fill="#038E8A"/>
<path fill-rule="evenodd" clip-rule="evenodd" d="M19.4016 8.1123H37.7123C38.6893 8.1123 38.732 8.16039 38.732 9.17508C38.732 9.63674 38.7415 10.0984 38.732 10.5553C38.7177 11.0602 38.585 11.1948 38.0965 11.2237C37.959 11.2333 37.8214 11.2237 37.6839 11.2237H1.05768C0.0570116 11.2333 0.00484415 11.1804 0.00958664 10.1946C0.00958664 9.71369 0.000101666 9.23279 0.00958664 8.7519C0.0285566 8.28062 0.161346 8.15078 0.616625 8.11711C0.754157 8.10749 0.891689 8.11711 1.03396 8.11711C7.15651 8.11711 13.2838 8.11711 19.4063 8.11711L19.4016 8.1123Z" fill="#24B34B"/>
<path fill-rule="evenodd" clip-rule="evenodd" d="M19.3732 2.49583H1.05298C0.953391 2.49583 0.853798 2.49583 0.758949 2.49583C0.147168 2.4814 0.0286059 2.36118 0.00489345 1.76006C-0.0283039 0.711709 0.0475758 0.634766 1.08144 0.634766C13.2933 0.634766 25.5052 0.634766 37.7171 0.634766C38.6846 0.634766 38.7557 0.7069 38.7368 1.69754C38.7225 2.38042 38.6182 2.49102 37.9305 2.49583C35.123 2.49583 32.3202 2.49583 29.5126 2.49583C26.136 2.49583 22.7546 2.49583 19.3779 2.49583H19.3732Z" fill="#24B34B"/>
<path d="M43.6167 45.1611H47.3633C47.8517 45.1611 48.2833 45.2477 48.658 45.416C49.0326 45.5843 49.3504 45.8055 49.6065 46.0796C49.8626 46.3538 50.057 46.6567 50.1898 46.9982C50.3226 47.3396 50.389 47.681 50.389 48.0225C50.389 48.3831 50.3226 48.739 50.1898 49.0852C50.057 49.4315 49.8626 49.7393 49.6017 50.0086C49.3456 50.2779 49.0279 50.4943 48.6532 50.653C48.2786 50.8165 47.847 50.8982 47.3633 50.8982H45.2197V54.7598H43.6167V45.1611ZM45.2197 49.5373H47.0265C47.3585 49.5373 47.6336 49.4988 47.8565 49.4171C48.0794 49.3353 48.2596 49.2295 48.3971 49.09C48.5347 48.9506 48.6342 48.7919 48.6959 48.6043C48.7576 48.4168 48.786 48.2196 48.786 48.0032C48.786 47.7868 48.7481 47.5945 48.6722 47.4165C48.5963 47.2338 48.4825 47.0799 48.3307 46.9501C48.179 46.8202 47.9988 46.7192 47.7759 46.6423C47.5577 46.5702 47.3064 46.5317 47.0171 46.5317H45.2102V49.5373H45.2197Z" fill="#2A2B79"/>
<path d="M69.9468 45.1611V46.5317H64.8629V49.1237H69.6338V50.4991H64.8629V53.37H70.165V54.7598H63.2646V45.1611H69.9516H69.9468Z" fill="#2A2B79"/>
<path d="M90.2825 47.9744C90.2825 48.3976 90.1734 48.7919 89.96 49.1622C89.7466 49.5325 89.4193 49.8499 88.9783 50.124C89.187 50.1961 89.3672 50.3019 89.5142 50.4414C89.6612 50.5808 89.7845 50.7347 89.8794 50.9078C89.9742 51.081 90.0453 51.2637 90.088 51.4561C90.1355 51.6532 90.1544 51.8456 90.1544 52.0379V53.4277C90.1544 53.6008 90.1971 53.8076 90.2825 54.0385C90.3678 54.2741 90.4817 54.5145 90.6239 54.7598H88.8739C88.8076 54.6492 88.7506 54.5338 88.708 54.4136C88.6653 54.2933 88.6321 54.1779 88.6131 54.0625C88.5941 53.9471 88.5799 53.8413 88.5752 53.7403C88.5704 53.6393 88.5657 53.5528 88.5657 53.471V52.0091C88.5657 51.8648 88.542 51.7254 88.4946 51.5811C88.4471 51.4416 88.3712 51.3118 88.2669 51.2012C88.1626 51.0906 88.025 50.9992 87.8543 50.9271C87.6836 50.8549 87.4749 50.8213 87.2283 50.8213H84.8144V54.7598H83.2114V45.1611H87.2283C87.7168 45.1611 88.1531 45.2429 88.5325 45.4112C88.9119 45.5747 89.2344 45.7911 89.4905 46.0556C89.7513 46.3201 89.9457 46.6231 90.0833 46.9597C90.2161 47.2963 90.2825 47.6329 90.2825 47.9792V47.9744ZM84.8144 49.4603H87.2283C87.4227 49.4603 87.6077 49.4267 87.7832 49.3545C87.9587 49.2824 88.1104 49.1862 88.2432 49.0564C88.376 48.9314 88.4803 48.7775 88.5562 48.5995C88.6321 48.4216 88.67 48.2244 88.67 48.008C88.67 47.7916 88.6321 47.5993 88.5609 47.4213C88.4898 47.2386 88.3855 47.0847 88.2574 46.9549C88.1294 46.825 87.9776 46.7192 87.8021 46.6471C87.6267 46.5702 87.4322 46.5317 87.2236 46.5317H84.8096V49.4651L84.8144 49.4603Z" fill="#2A2B79"/>
<path d="M110.177 45.1611V46.5317H105.245V49.1237H109.528V50.4991H105.245V54.7598H103.642V45.1611H110.177Z" fill="#2A2B79"/>
<path d="M131.41 49.9357C131.41 50.6763 131.315 51.3592 131.116 51.9843C130.921 52.6047 130.637 53.1385 130.262 53.5905C129.887 54.0378 129.432 54.384 128.887 54.6341C128.346 54.8793 127.72 55.0044 127.023 55.0044C126.326 55.0044 125.7 54.8793 125.159 54.6293C124.619 54.3792 124.163 54.0282 123.789 53.5809C123.414 53.1337 123.134 52.5999 122.94 51.9795C122.745 51.3592 122.65 50.6763 122.65 49.9309C122.65 49.1855 122.745 48.5075 122.94 47.8967C123.134 47.2812 123.414 46.7522 123.789 46.3146C124.163 45.877 124.619 45.5355 125.159 45.2903C125.7 45.045 126.321 44.9248 127.023 44.9248C127.725 44.9248 128.346 45.0498 128.887 45.2951C129.432 45.5404 129.887 45.8818 130.262 46.3242C130.637 46.7666 130.921 47.2908 131.116 47.9064C131.31 48.5219 131.41 49.2 131.41 49.9454V49.9357ZM129.807 49.9261C129.807 49.3442 129.736 48.8249 129.589 48.3728C129.446 47.9208 129.247 47.5361 128.996 47.2283C128.744 46.9205 128.45 46.6801 128.114 46.5214C127.777 46.3579 127.412 46.2761 127.023 46.2761C126.634 46.2761 126.264 46.3579 125.927 46.5214C125.591 46.6849 125.297 46.9205 125.05 47.2283C124.803 47.5361 124.609 47.9208 124.467 48.3728C124.324 48.8297 124.253 49.3442 124.253 49.9261C124.253 50.508 124.324 51.0322 124.467 51.489C124.609 51.9507 124.803 52.3354 125.05 52.6576C125.297 52.975 125.591 53.2202 125.927 53.3886C126.264 53.5569 126.629 53.6386 127.023 53.6386C127.417 53.6386 127.777 53.5569 128.114 53.3886C128.45 53.2202 128.744 52.9798 128.996 52.6576C129.247 52.3402 129.446 51.9507 129.589 51.489C129.736 51.0322 129.807 50.508 129.807 49.9261Z" fill="#2A2B79"/>
<path d="M151.399 47.9744C151.399 48.3976 151.29 48.7919 151.076 49.1622C150.863 49.5325 150.536 49.8499 150.095 50.124C150.303 50.1961 150.484 50.3019 150.631 50.4414C150.778 50.5808 150.901 50.7347 150.996 50.9078C151.091 51.081 151.162 51.2637 151.204 51.4561C151.247 51.6532 151.271 51.8456 151.271 52.0379V53.4277C151.271 53.6008 151.314 53.8076 151.394 54.0385C151.48 54.2741 151.593 54.5145 151.736 54.7598H149.986C149.919 54.6492 149.862 54.5338 149.82 54.4136C149.777 54.2933 149.744 54.1779 149.725 54.0625C149.706 53.9471 149.692 53.8413 149.682 53.7403C149.677 53.6393 149.673 53.5528 149.673 53.471V52.0091C149.673 51.8648 149.649 51.7254 149.601 51.5811C149.554 51.4416 149.478 51.3118 149.374 51.2012C149.27 51.0906 149.132 50.9992 148.961 50.9271C148.791 50.8549 148.582 50.8213 148.335 50.8213H145.921V54.7598H144.318V45.1611H148.335C148.824 45.1611 149.26 45.2429 149.639 45.4112C150.019 45.5747 150.341 45.7911 150.602 46.0556C150.863 46.3201 151.057 46.6231 151.195 46.9597C151.328 47.2963 151.394 47.6329 151.394 47.9792L151.399 47.9744ZM145.931 49.4603H148.345C148.539 49.4603 148.724 49.4267 148.9 49.3545C149.075 49.2824 149.227 49.1862 149.36 49.0564C149.492 48.9314 149.597 48.7775 149.673 48.5995C149.749 48.4216 149.786 48.2244 149.786 48.008C149.786 47.7916 149.748 47.5993 149.677 47.4213C149.606 47.2386 149.502 47.0847 149.374 46.9549C149.246 46.825 149.094 46.7192 148.914 46.6471C148.738 46.5702 148.544 46.5317 148.335 46.5317H145.921V49.4651L145.931 49.4603Z" fill="#2A2B79"/>
<path d="M166.575 45.1611L169.221 52.6871L171.925 45.1611H173.731V54.7598H172.129V48.4216L169.952 54.7598H168.595L166.376 48.4024V54.7598H164.773V45.1611H166.58H166.575Z" fill="#2A2B79"/>
<path d="M191.886 45.1611L195.348 54.7598H193.674L192.654 51.9514H189.249C189.088 52.413 188.917 52.8843 188.742 53.3556C188.566 53.8269 188.4 54.2981 188.234 54.7598H186.579L190.041 45.1611H191.886ZM190.952 47.1761L189.742 50.5904H192.152L190.952 47.1761Z" fill="#2A2B79"/>
<path d="M210.016 45.1611L214.081 52.4611V45.1611H215.684V54.7598H213.877L209.793 47.3877V54.7598H208.19V45.1611H210.016Z" fill="#2A2B79"/>
<path d="M230.338 49.826C230.338 50.4896 230.418 51.057 230.58 51.5379C230.741 52.0188 230.954 52.418 231.215 52.7306C231.476 53.0431 231.775 53.2788 232.107 53.4327C232.439 53.5866 232.775 53.6635 233.112 53.6635C233.449 53.6635 233.776 53.5914 234.061 53.4471C234.345 53.3028 234.597 53.1105 234.81 52.87C235.023 52.6296 235.204 52.3603 235.341 52.0525C235.483 51.7495 235.583 51.4321 235.645 51.1148H237.271C237.167 51.6582 237.001 52.1679 236.773 52.6392C236.546 53.1105 236.256 53.5192 235.905 53.8703C235.555 54.2213 235.147 54.4954 234.677 54.6974C234.208 54.8994 233.686 54.9956 233.107 54.9956C232.439 54.9956 231.832 54.8802 231.296 54.6493C230.76 54.4185 230.3 54.0819 229.92 53.6395C229.541 53.197 229.247 52.6536 229.043 52.014C228.839 51.3744 228.735 50.6387 228.735 49.8211C228.735 49.1816 228.834 48.5708 229.029 47.9793C229.223 47.3926 229.508 46.8685 229.878 46.4116C230.252 45.9596 230.708 45.5941 231.248 45.3248C231.789 45.0555 232.406 44.916 233.098 44.916C233.686 44.916 234.212 45.0026 234.672 45.1709C235.132 45.3392 235.54 45.5748 235.887 45.8778C236.233 46.176 236.527 46.5366 236.764 46.9502C237.001 47.3638 237.191 47.8158 237.333 48.3063H235.668C235.427 47.6235 235.099 47.1137 234.677 46.7771C234.255 46.4405 233.729 46.2721 233.098 46.2721C232.69 46.2721 232.32 46.3683 231.983 46.5559C231.647 46.7434 231.357 46.9983 231.111 47.3253C230.869 47.6475 230.675 48.0274 230.542 48.4554C230.404 48.8882 230.338 49.3451 230.338 49.8308V49.826Z" fill="#2A2B79"/>
<path d="M256.687 45.1611V46.5317H251.603V49.1237H256.374V50.4991H251.603V53.37H256.905V54.7598H250.005V45.1611H256.692H256.687Z" fill="#2A2B79"/>
</g>
<defs>
<clipPath id="clip0_1365_18661">
<rect width="257" height="55" fill="white"/>
</clipPath>
</defs>
</svg>
